<?xml version="1.0" encoding="UTF-8" standalone="no" ?>
<!DOCTYPE svg PUBLIC "-//W3C//DTD SVG 1.1//EN" "http://www.w3.org/Graphics/SVG/1.1/DTD/svg11.dtd">
<svg xmlns="http://www.w3.org/2000/svg" xmlns:xlink="http://www.w3.org/1999/xlink" version="1.1" width="100" height="100" viewBox="0 0 500 500" xml:space="preserve">
<desc>Created with Fabric.js 5.3.0</desc>
<defs>
</defs>
<g transform="matrix(0.0178479111 0.9998476952 -1.0225061432 0.0174524064 219.2007970383 120.7776338144)" id="A_QmiEQLqndGNhnPX2smb"  >
<path style="stroke: rgb(76,39,108); stroke-width: 0; stroke-dasharray: none; stroke-linecap: butt; stroke-dashoffset: 0; stroke-linejoin: miter; stroke-miterlimit: 4; fill: rgb(100,51,190); fill-opacity: 0; fill-rule: nonzero; opacity: 1;"  transform=" translate(-37.16629, -32.18695)" d="M 55.74936 0 L 74.33258000000001 32.18695 L 55.74936000000001 64.3739 L 18.58322000000001 64.3739 L 1.0658141036401503e-14 32.18695 L 18.58322000000001 0 z" stroke-linecap="round" />
</g>
<g transform="matrix(0 6.206853452 -6.2059082892 0 250.753525004 247.7282407102)" id="1IGCx2U6kk8HTke81Zfas"  >
<path style="stroke: rgb(100,255,218); stroke-width: 0; stroke-dasharray: none; stroke-linecap: butt; stroke-dashoffset: 0; stroke-linejoin: miter; stroke-miterlimit: 4; fill: rgb(100,255,218); fill-rule: nonzero; opacity: 1;"  transform=" translate(-40, -40)" d="M 60 40 L 80 80 L 40 80 L 0 80 L 20 40 L 40 0 L 60 40 z" stroke-linecap="round" />
</g>
<g transform="matrix(0.0153901291 0.8816999075 -0.8816999075 0.0153901291 156.8381810886 250)" id="VfNpjKJphPkRxrFjAuEnJ"  >
<path style="stroke: none; stroke-width: 1; stroke-dasharray: none; stroke-linecap: butt; stroke-dashoffset: 0; stroke-linejoin: miter; stroke-miterlimit: 4; fill: rgb(0,0,0); fill-rule: nonzero; opacity: 1;"  transform=" translate(-40, -40)" d="M 60 40 L 80 80 L 40 80 L 0 80 L 20 40 L 40 0 L 60 40 z" stroke-linecap="round" />
</g>
</svg>